# xmcd
#
# Track frame offsets:
# 150
# 40832
# 76017
# 181690
# 206240
# 273917
#
# Disc length: 4469 seconds
#
# Revision: 1
# Processed by: cddbd v1.4PL0 Copyright (c) Steve Scherf et al.
# Submitted via: CedeCatalogueitor 2.5 http://usuarios.lycos.es/kakasboy
#
DISCID=44117306
DTITLE=THE ALLMAN BROTHERS BAND - WIL BLUESY ROAD
DYEAR=1991
DGENRE=
TTITLE0=KIND OF BIRD
TTITLE1=GET ON WITH YOUR LIFE
TTITLE2=IN MEMORY OF ELIZABETH REED
TTITLE3=REVIVAL
TTITLE4=JESSICA
TTITLE5=WHIPPING POST
EXTD=
EXTT0=
EXTT1=
EXTT2=
EXTT3=
EXTT4=
EXTT5=
PLAYORDER=
